<svg xmlns="http://www.w3.org/2000/svg" xmlns:xlink="http://www.w3.org/1999/xlink" width="64" height="64" viewBox="0 0 64 64">
  <defs>
    <clipPath id="clip-path">
      <rect id="Rectangle_14185" data-name="Rectangle 14185" width="64" height="64" transform="translate(0.184)" fill="none"/>
    </clipPath>
  </defs>
  <g id="Group_50012" data-name="Group 50012" transform="translate(0 64.184) rotate(-90)" clip-path="url(#clip-path)">
    <path id="Path_74610" data-name="Path 74610" d="M64.082,32.041A32.041,32.041,0,1,1,32.041,0,32.041,32.041,0,0,1,64.082,32.041" transform="translate(0 -0.154)" fill="#1e396a"/>
    <path id="Path_74611" data-name="Path 74611" d="M92.04,120.346a2.906,2.906,0,0,1-.816,1.108q-4.367,4.359-8.726,8.726a1.461,1.461,0,0,1-1.537.463,4.4,4.4,0,0,1-1.753-1.745,1.327,1.327,0,0,1,.258-1.311,3.635,3.635,0,0,1,.256-.274q2.517-2.509,5.037-5.017a2.606,2.606,0,0,1,.214-.173l-.026-.074H67.925a1.326,1.326,0,0,1-1.462-1.121,6.454,6.454,0,0,1,0-1.815,1.286,1.286,0,0,1,1.419-1.069H84.935c-.092-.1-.149-.162-.209-.222l-5.039-5.05a1.446,1.446,0,0,1-.005-2.273c.23-.23.455-.466.691-.69a1.4,1.4,0,0,1,2-.018c.068.062.132.128.2.193q4.328,4.327,8.657,8.653a2.908,2.908,0,0,1,.815,1.109Z" transform="translate(-47.178 -88.156)" fill="#fff"/>
  </g>
</svg>
