<svg id="Group_49996" data-name="Group 49996" xmlns="http://www.w3.org/2000/svg" xmlns:xlink="http://www.w3.org/1999/xlink" width="93.007" height="23.569" viewBox="0 0 93.007 23.569">
  <defs>
    <clipPath id="clip-path">
      <rect id="Rectangle_14182" data-name="Rectangle 14182" width="93.007" height="23.569" fill="#fff"/>
    </clipPath>
  </defs>
  <g id="Group_49995" data-name="Group 49995" clip-path="url(#clip-path)">
    <path id="Path_74607" data-name="Path 74607" d="M0,30.981H3.635V44.222h6.73v3.355H0Zm11.972,5.344h3.492V47.571H11.972Zm1.746-5.591a2.026,2.026,0,1,1-2.026,2.026,2.026,2.026,0,0,1,2.026-2.026h0m16.355.245h3.492V40.9l3.958-4.578h4.282l-4.584,5.207,4.487,6.05H37.319l-3.707-5.559h-.046v5.559H30.074ZM17.4,36.325h3.354v1.537H20.8a3.669,3.669,0,0,1,3.307-1.817c3.541,0,4.193,2.33,4.193,5.357V47.57H24.81V42.1c0-1.305-.024-2.983-1.819-2.983-1.815,0-2.1,1.421-2.1,2.888v5.561H17.4Z" transform="translate(0 -27.493)" fill="#fff"/>
    <path id="Path_74608" data-name="Path 74608" d="M397.533,13.146A2.094,2.094,0,0,0,395.489,11h-.1a2.33,2.33,0,0,0-2.468,2.143Zm2.958,4.984a6.151,6.151,0,0,1-4.776,2.238c-3.492,0-6.288-2.331-6.288-5.941s2.8-5.94,6.288-5.94c3.264,0,5.311,2.328,5.311,5.94v1.1h-8.106a2.609,2.609,0,0,0,2.632,2.19,2.98,2.98,0,0,0,2.492-1.374Zm7.815-6.58a2.648,2.648,0,0,0-2.794,2.865,2.8,2.8,0,1,0,5.59,0,2.647,2.647,0,0,0-2.8-2.865m6.011,8.526H411.1V18.584h-.048a4.391,4.391,0,0,1-3.472,1.771c-3.356,0-5.566-2.422-5.566-5.846,0-3.145,1.956-6.033,5.171-6.033a4.216,4.216,0,0,1,3.587,1.491h.046V3.484h3.5Zm23.576.007H434.4V14.613c0-1.3-.023-2.983-1.816-2.983-1.819,0-2.1,1.421-2.1,2.888v5.564H427V8.835h3.352v1.537h.047A3.675,3.675,0,0,1,433.7,8.555c3.539,0,4.192,2.328,4.192,5.357ZM423.055,7.3a2.027,2.027,0,1,1,2.026-2.027A2.027,2.027,0,0,1,423.055,7.3M424.8,20.082h-3.5V8.835h3.5ZM439.634,0H419.55a1.72,1.72,0,0,0-1.739,1.7V21.868a1.721,1.721,0,0,0,1.739,1.7h20.084a1.725,1.725,0,0,0,1.746-1.7V1.7A1.723,1.723,0,0,0,439.634,0" transform="translate(-348.373 0)" fill="#fff"/>
  </g>
</svg>
