<svg id="Group_50023" data-name="Group 50023" xmlns="http://www.w3.org/2000/svg" xmlns:xlink="http://www.w3.org/1999/xlink" width="78.55" height="23.569" viewBox="0 0 78.55 23.569">
  <defs>
    <clipPath id="clip-path">
      <rect id="Rectangle_14201" data-name="Rectangle 14201" width="78.55" height="23.569" fill="#fff"/>
    </clipPath>
  </defs>
  <g id="Group_50022" data-name="Group 50022" clip-path="url(#clip-path)">
    <path id="Path_74617" data-name="Path 74617" d="M23.573,11.784A11.786,11.786,0,1,1,11.986,0,11.8,11.8,0,0,1,23.573,11.784M10.061,6.2c-.978.075-1.963.106-2.933.239a25.23,25.23,0,0,0-2.665.547A1.074,1.074,0,0,0,3.808,8.6a1.1,1.1,0,0,0,1.3.471A15.3,15.3,0,0,1,8.371,8.5a22.311,22.311,0,0,1,4.471.109,18.528,18.528,0,0,1,3.7.831,12.589,12.589,0,0,1,2.206,1,1.093,1.093,0,1,0,1.118-1.88,13.823,13.823,0,0,0-3.071-1.342A24.4,24.4,0,0,0,10.061,6.2M9.78,12.128a17.059,17.059,0,0,1,3.32.337,13.451,13.451,0,0,1,4.272,1.621.913.913,0,1,0,.879-1.6,15.543,15.543,0,0,0-5.826-2,17.577,17.577,0,0,0-4.109-.126,15.507,15.507,0,0,0-3.179.6.907.907,0,0,0-.648,1.163.916.916,0,0,0,1.168.583,14.739,14.739,0,0,1,4.123-.574m.02,2.015a19.217,19.217,0,0,0-4.261.527.725.725,0,0,0-.581.891.745.745,0,0,0,.912.532c.337-.072.674-.144,1.013-.205a16.016,16.016,0,0,1,4.576-.212,11.233,11.233,0,0,1,4.7,1.546.728.728,0,1,0,.744-1.25c-.25-.15-.5-.294-.764-.426a13.41,13.41,0,0,0-6.341-1.4" transform="translate(-0.001 0)" fill="#fff"/>
    <path id="Path_74618" data-name="Path 74618" d="M1588.061,152.949v6.094c0,.285,0,.285-.288.285h-1.515c-.276,0-.282-.006-.282-.277q0-2.93,0-5.859v-.243c-.273,0-.53-.007-.786,0-.166.006-.224-.058-.222-.221.006-.465.009-.93,0-1.4,0-.189.078-.245.25-.241.244.007.489,0,.738,0,.02-.342.019-.668.061-.987a2.228,2.228,0,0,1,2.3-2.128,5.2,5.2,0,0,1,1.635.181c.146.038.209.1.206.259-.009.452,0,.9,0,1.355,0,.217-.053.238-.268.193a6.184,6.184,0,0,0-.977-.155.746.746,0,0,0-.849.711,4.105,4.105,0,0,0,0,.6h.21c.917,0,1.833,0,2.75,0a.273.273,0,0,1,.3.212q.971,2.555,1.953,5.106c.033.085.067.17.121.306.041-.121.065-.2.092-.274q.9-2.579,1.806-5.158a.242.242,0,0,1,.275-.189c.558.007,1.116,0,1.674,0,.264,0,.3.046.2.3q-1.294,3.347-2.591,6.692c-.289.74-.577,1.483-.916,2.2a2.3,2.3,0,0,1-1.464,1.347,3.68,3.68,0,0,1-2.808-.363.242.242,0,0,1-.069-.225c.183-.434.384-.86.579-1.288.06-.132.148-.1.264-.068a4.815,4.815,0,0,0,.931.25.964.964,0,0,0,.97-.733.3.3,0,0,0-.031-.168q-1.238-2.973-2.477-5.946a.237.237,0,0,0-.263-.171c-.5.009-.993,0-1.511,0" transform="translate(-1521.78 -142.075)" fill="#fff"/>
    <path id="Path_74619" data-name="Path 74619" d="M911.155,223.559c.158-.156.281-.292.419-.412a3.43,3.43,0,0,1,3.89-.36,3.878,3.878,0,0,1,2.024,3,5.161,5.161,0,0,1-.263,2.681,3.754,3.754,0,0,1-3.8,2.429,3.191,3.191,0,0,1-2.046-.915l-.171-.167a.532.532,0,0,0-.053-.03v.2q0,1.435,0,2.87c0,.289,0,.295-.285.295-.525,0-1.05,0-1.574,0-.173,0-.231-.062-.231-.234q.005-5.082,0-10.165c0-.173.057-.235.231-.232q.817.011,1.634,0c.173,0,.237.06.229.234-.011.256,0,.512,0,.806m4.307,3.088a7.455,7.455,0,0,0-.169-.894,2.023,2.023,0,0,0-1.576-1.5,2,2,0,0,0-2.046.73,2.687,2.687,0,0,0,.023,3.319,2.078,2.078,0,0,0,3.243-.063,2.9,2.9,0,0,0,.526-1.595" transform="translate(-872.823 -213.483)" fill="#fff"/>
    <path id="Path_74620" data-name="Path 74620" d="M684.1,157.855a6.179,6.179,0,0,1,3.93,1.264c.211.163.213.181.059.4l-.817,1.154c-.166.234-.178.234-.4.073a4.8,4.8,0,0,0-2.268-.95,2.344,2.344,0,0,0-1.361.187,1.012,1.012,0,0,0-.61.909.959.959,0,0,0,.557.935,7.947,7.947,0,0,0,1.864.616,7.749,7.749,0,0,1,2.094.791,2.688,2.688,0,0,1,1.343,2.875,3.126,3.126,0,0,1-2.746,2.746,6.476,6.476,0,0,1-5.492-1.5c-.214-.177-.212-.207-.037-.415.316-.376.636-.75.946-1.131.114-.14.206-.15.344-.031a4.883,4.883,0,0,0,2.264,1.188,3.221,3.221,0,0,0,1.918-.1,1.087,1.087,0,0,0,.678-1.273.791.791,0,0,0-.466-.61,11.66,11.66,0,0,0-1.45-.53,14.54,14.54,0,0,1-2.159-.678,2.683,2.683,0,0,1-1.658-1.739,3.1,3.1,0,0,1,1.965-3.89,4.217,4.217,0,0,1,1.5-.285" transform="translate(-652.974 -151.561)" fill="#fff"/>
    <path id="Path_74621" data-name="Path 74621" d="M1140.319,231a4.29,4.29,0,0,1-.954-8.488,4.385,4.385,0,0,1,4.745,1.985,4.278,4.278,0,0,1-2.847,6.379c-.311.061-.63.084-.945.124m2.3-4.28a5.432,5.432,0,0,0-.07-.571,2.2,2.2,0,0,0-1.625-1.781,2.12,2.12,0,0,0-2.264.636,2.489,2.489,0,0,0-.577,2.058,2.28,2.28,0,0,0,2.919,1.965,2.317,2.317,0,0,0,1.617-2.308" transform="translate(-1090.668 -213.543)" fill="#fff"/>
    <path id="Path_74622" data-name="Path 74622" d="M1361.632,174.071c.563,0,1.1,0,1.636,0,.578,0,.5-.061.505.514,0,.359-.008.718,0,1.076.006.2-.068.253-.257.25-.551-.01-1.1,0-1.654,0h-.225c0,.086-.009.15-.009.215q0,1.744,0,3.487a2.019,2.019,0,0,0,.039.375.617.617,0,0,0,.537.515,2.135,2.135,0,0,0,1.222-.181c.259-.114.313-.077.313.211,0,.418,0,.837,0,1.255a.257.257,0,0,1-.16.266,3.525,3.525,0,0,1-2.669.216,1.871,1.871,0,0,1-1.319-1.618,3.98,3.98,0,0,1-.052-.673c0-1.269,0-2.537,0-3.806v-.262c-.274,0-.531-.007-.787,0-.175.006-.236-.069-.234-.237,0-.452.006-.9,0-1.355,0-.176.058-.256.243-.249.25.01.5,0,.779,0v-.23c0-.578,0-1.156,0-1.734,0-.163.053-.225.219-.223q.827.01,1.654,0c.166,0,.22.061.219.223-.006.644,0,1.288,0,1.963" transform="translate(-1304.363 -165.032)" fill="#fff"/>
    <path id="Path_74623" data-name="Path 74623" d="M1511.276,230.76q0-1.912,0-3.824c0-.264.009-.274.263-.274.531,0,1.062,0,1.593,0,.168,0,.237.05.236.227q-.006,3.883,0,7.767c0,.177-.068.229-.237.227-.538-.007-1.076-.01-1.613,0-.2,0-.247-.071-.246-.258.007-1.288,0-2.576,0-3.864" transform="translate(-1451.023 -217.623)" fill="#fff"/>
    <path id="Path_74624" data-name="Path 74624" d="M1507.681,137.308a1.306,1.306,0,1,1-1.287-1.316,1.3,1.3,0,0,1,1.287,1.316" transform="translate(-1445.067 -130.571)" fill="#fff"/>
    <path id="Path_74625" data-name="Path 74625" d="M1908.158,227.5a1.29,1.29,0,0,1-2.58-.027,1.3,1.3,0,0,1,1.309-1.278,1.276,1.276,0,0,1,1.271,1.3m-.15,0a1.112,1.112,0,0,0-1.127-1.156,1.134,1.134,0,0,0-1.154,1.139,1.141,1.141,0,1,0,2.281.017" transform="translate(-1829.608 -217.174)" fill="#fff"/>
    <path id="Path_74626" data-name="Path 74626" d="M1925.612,242.3h-.236v-1.33c.257,0,.515-.019.769.007a.364.364,0,0,1,.331.326.407.407,0,0,1-.188.447l-.1.059.329.472c-.275.112-.38-.067-.48-.239s-.2-.259-.426-.169Zm.018-.7a1.627,1.627,0,0,0,.4-.009.271.271,0,0,0,.169-.195c0-.064-.1-.167-.175-.185a1.656,1.656,0,0,0-.395-.008Z" transform="translate(-1848.617 -231.354)" fill="#fff"/>
  </g>
</svg>
